<svg width="96" height="21" viewBox="0 0 96 21" fill="none" xmlns="http://www.w3.org/2000/svg">
<path d="M24.4978 0.0048385H26.8731L29.3819 6.12538H29.4882L31.9969 0.0048385H34.3722V9.11458H32.5045V3.18546H32.4291L30.0712 9.07011H28.7989L26.441 3.16322H26.3656V9.11458H24.4978V0.0048385ZM37.5297 9.11458H35.4656L38.6105 0.0048385H41.0922L44.2322 9.11458H42.1682L39.8866 2.08627H39.8151L37.5287 9.11458H37.5297ZM37.4001 5.65359H42.2755V7.1569H37.4001V5.65359ZM50.9415 3.06945C50.8796 2.8529 50.7916 2.66148 50.6795 2.4952C50.5664 2.32602 50.4291 2.18391 50.2657 2.0679C50.1052 1.94899 49.9216 1.85908 49.7137 1.79624C49.5087 1.73437 49.2825 1.70247 49.0331 1.70247C48.5681 1.70247 48.1582 1.81846 47.8053 2.04952C47.4554 2.28057 47.1827 2.61702 46.9865 3.05883C46.7912 3.49774 46.6926 4.03428 46.6926 4.66944C46.6926 5.30459 46.7893 5.84404 46.9816 6.28875C47.174 6.73346 47.4476 7.0728 47.8005 7.30772C48.1534 7.53877 48.57 7.65479 49.0505 7.65479C49.4865 7.65479 49.8587 7.57744 50.1671 7.42372C50.4784 7.26614 50.7162 7.04573 50.8786 6.76054C51.0449 6.47632 51.1281 6.1389 51.1281 5.75123L51.5196 5.80925H49.1713V4.35911H52.9833V5.50664C52.9833 6.30711 52.8141 6.99545 52.4757 7.57067C52.1374 8.14299 51.6723 8.58479 51.0788 8.89609C50.4861 9.20449 49.8065 9.35917 49.0418 9.35917C48.1882 9.35917 47.437 9.17064 46.7912 8.79458C46.1444 8.41464 45.6408 7.87713 45.2792 7.1801C44.9205 6.48017 44.7407 5.64972 44.7407 4.68877C44.7407 3.95016 44.847 3.29181 45.0607 2.71369C45.2773 2.13267 45.5798 1.64059 45.9685 1.23648C46.3571 0.833347 46.8096 0.525917 47.3248 0.316131C47.8411 0.105378 48.3999 0 49.0022 0C49.5184 0 49.9989 0.0754164 50.4436 0.227197C50.8883 0.375111 51.2827 0.585866 51.6269 0.858492C51.974 1.13112 52.2572 1.45593 52.4767 1.83297C52.6961 2.20613 52.8373 2.61894 52.8992 3.06945H50.9424H50.9415ZM62.0495 0.0048385V9.11458H60.3857L56.423 3.38074H56.3563V9.11458H54.4305V0.0048385H56.1204L60.0522 5.73384H60.1324V0.0048385H62.0495ZM63.6408 9.11458V0.0048385H69.7787V1.59321H65.5666V3.7636H69.4626V5.35197H65.5666V7.52717H69.7971V9.11555H63.6408V9.11458ZM70.964 1.59321V0.0048385H78.4457V1.59321H75.6566V9.11458H73.7531V1.59321H70.964ZM79.3312 1.59321V0.0048385H86.813V1.59321H84.0239V9.11458H82.1203V1.59321H79.3312ZM96 4.68008C96 5.67391 95.8115 6.51885 95.4355 7.21588C95.0613 7.91291 94.5518 8.44463 93.9051 8.81296C93.2612 9.17743 92.5381 9.36014 91.7347 9.36014C90.9313 9.36014 90.1985 9.17646 89.5547 8.80812C88.9108 8.44076 88.4023 7.90807 88.0291 7.21104C87.655 6.51401 87.4684 5.67101 87.4684 4.68008C87.4684 3.68916 87.655 2.84131 88.0291 2.14428C88.4023 1.44725 88.9108 0.916481 89.5547 0.552014C90.1985 0.184647 90.9246 0 91.7347 0C92.5449 0 93.2622 0.18368 93.9051 0.552014C94.5518 0.916481 95.0613 1.44725 95.4355 2.14428C95.8125 2.84131 96 3.68626 96 4.68008ZM94.0472 4.68008C94.0472 4.03622 93.9505 3.49386 93.7581 3.05206C93.5687 2.61025 93.2999 2.27479 92.9528 2.04664C92.6058 1.81848 92.1997 1.7044 91.7337 1.7044C91.2678 1.7044 90.8617 1.81848 90.5147 2.04664C90.1676 2.27479 89.8979 2.61025 89.7055 3.05206C89.516 3.49386 89.4213 4.03622 89.4213 4.68008C89.4213 5.32394 89.516 5.86628 89.7055 6.30808C89.8979 6.74989 90.1676 7.08537 90.5147 7.31352C90.8617 7.54168 91.2678 7.65574 91.7337 7.65574C92.1997 7.65574 92.6058 7.54168 92.9528 7.31352C93.2999 7.08537 93.5677 6.74989 93.7581 6.30808C93.9505 5.86628 94.0472 5.32394 94.0472 4.68008Z" fill="white"/>
<path d="M25.5221 20.3172C25.2418 20.3172 25.002 20.2176 24.8009 20.0194C24.6028 19.8173 24.5042 19.5766 24.5042 19.2953C24.5042 19.014 24.6028 18.7781 24.8009 18.5799C25.002 18.3808 25.2418 18.2821 25.5221 18.2821C25.8025 18.2821 26.0316 18.3817 26.2346 18.5799C26.4386 18.7791 26.5401 19.0169 26.5401 19.2953C26.5401 19.4829 26.4918 19.6549 26.3961 19.8106C26.3023 19.9643 26.1795 20.0871 26.0268 20.1808C25.874 20.2717 25.7058 20.3172 25.5221 20.3172ZM28.2271 20.3114V11.2016H31.8215C32.5128 11.2016 33.1015 11.3341 33.5878 11.598C34.0741 11.859 34.4443 12.2225 34.6996 12.6875C34.9577 13.1506 35.0863 13.6842 35.0863 14.2885C35.0863 14.8927 34.9557 15.4273 34.6947 15.8894C34.4337 16.3515 34.0557 16.7121 33.5607 16.9702C33.0686 17.2284 32.4722 17.357 31.7722 17.357H29.481V15.813H31.46C31.8302 15.813 32.1357 15.7492 32.3764 15.6216C32.6201 15.4911 32.8008 15.3113 32.9188 15.0831C33.0406 14.8521 33.1015 14.5862 33.1015 14.2865C33.1015 13.9868 33.0406 13.72 32.9188 13.4948C32.7999 13.2666 32.6191 13.0897 32.3764 12.965C32.1328 12.8374 31.8244 12.7736 31.4513 12.7736H30.1519V20.3085H28.2262L28.2271 20.3114ZM36.3372 20.3114V11.2016H39.9316C40.62 11.2016 41.2068 11.3244 41.6931 11.5709C42.1823 11.8146 42.5545 12.1597 42.8097 12.6073C43.0678 13.052 43.1964 13.576 43.1964 14.1773C43.1964 14.7786 43.0659 15.3026 42.8048 15.7386C42.5438 16.1717 42.1658 16.5033 41.6708 16.7353C41.1788 16.9664 40.5823 17.0824 39.8823 17.0824H37.4761V15.5346H39.571C39.9384 15.5346 40.2439 15.4844 40.4875 15.3838C40.7311 15.2833 40.9119 15.1315 41.0299 14.9304C41.1517 14.7284 41.2126 14.478 41.2126 14.1783C41.2126 13.8786 41.1517 13.6204 41.0299 13.4135C40.911 13.2057 40.7292 13.0491 40.4827 12.9418C40.2391 12.8325 39.9326 12.7774 39.5623 12.7774H38.264V20.3123H36.3382L36.3372 20.3114ZM41.2571 16.1659L43.5212 20.3114H41.3953L39.1805 16.1659H41.258H41.2571ZM52.9287 15.6371C52.9287 16.6309 52.7402 17.4759 52.3641 18.1729C51.99 18.8699 51.4805 19.4016 50.8338 19.77C50.1899 20.1344 49.4668 20.3172 48.6634 20.3172C47.86 20.3172 47.1272 20.1335 46.4833 19.7652C45.8395 19.3978 45.331 18.8651 44.9578 18.1681C44.5837 17.471 44.3971 16.628 44.3971 15.6371C44.3971 14.6462 44.5837 13.7983 44.9578 13.1013C45.3319 12.4043 45.8395 11.8735 46.4833 11.509C47.1272 11.1417 47.8532 10.957 48.6634 10.957C49.4735 10.957 50.1909 11.1407 50.8338 11.509C51.4805 11.8735 51.99 12.4043 52.3641 13.1013C52.7412 13.7983 52.9287 14.6433 52.9287 15.6371ZM50.9759 15.6371C50.9759 14.9932 50.8792 14.4509 50.6868 14.0091C50.4973 13.5673 50.2286 13.2318 49.8815 13.0036C49.5344 12.7755 49.1284 12.6614 48.6624 12.6614C48.1964 12.6614 47.7904 12.7755 47.4433 13.0036C47.0963 13.2318 46.8265 13.5673 46.6342 14.0091C46.4447 14.4509 46.3499 14.9932 46.3499 15.6371C46.3499 16.2809 46.4447 16.8233 46.6342 17.2651C46.8265 17.7069 47.0963 18.0424 47.4433 18.2705C47.7904 18.4987 48.1964 18.6128 48.6624 18.6128C49.1284 18.6128 49.5344 18.4987 49.8815 18.2705C50.2286 18.0424 50.4973 17.7069 50.6868 17.2651C50.8792 16.8233 50.9759 16.2809 50.9759 15.6371Z" fill="#A5F469"/>
<path d="M4.00914 0.00634766H16.4175C18.6313 0.00634766 20.4266 1.79098 20.4266 3.99325V16.3339C20.4266 18.5361 18.6313 20.3208 16.4175 20.3208H4.00914C1.79527 20.3208 0 18.5361 0 16.3339V3.99325C0 1.79098 1.79527 0.00634766 4.00914 0.00634766Z" fill="#A5F469"/>
<path fill-rule="evenodd" clip-rule="evenodd" d="M1.65356 9.88571C1.65356 5.71029 4.91733 2.32568 8.94387 2.32568H15.6493L14.9513 5.85725H8.94387C6.79864 5.85725 5.05945 7.66121 5.05945 9.88571C5.05945 12.1102 6.79864 13.9142 8.94387 13.9142H13.3213L12.6233 17.4458H8.94484C4.91927 17.4467 1.65453 14.0621 1.65453 9.88571H1.65356Z" fill="black"/>
<path fill-rule="evenodd" clip-rule="evenodd" d="M18.0267 5.89323H15.6988L16.3968 2.39648H18.7247L18.0267 5.89323ZM14.0688 13.8699H16.3968L15.6988 17.3667H13.3708L14.0688 13.8699Z" fill="black"/>
</svg>
